<?xml version="1.0" encoding="UTF-8" standalone="no"?>
<!DOCTYPE svg PUBLIC "-//W3C//DTD SVG 1.1//EN"
 "http://www.w3.org/Graphics/SVG/1.1/DTD/svg11.dtd">
<!-- Generated by graphviz version 2.40.1 (20161225.0304)
 -->
<!-- Title: G Pages: 1 -->
<svg width="676pt" height="268pt"
 viewBox="0.00 0.00 676.02 267.98" xmlns="http://www.w3.org/2000/svg" xmlns:xlink="http://www.w3.org/1999/xlink">
<g id="graph0" class="graph" transform="scale(1 1) rotate(0) translate(7.992 259.992)">
<title>G</title>
<polygon fill="#000000" stroke="transparent" points="-7.992,7.992 -7.992,-259.992 668.0273,-259.992 668.0273,7.992 -7.992,7.992"/>
<!-- box&#45;wrapper/box&#45;wrapper.component.ts -->
<g id="node1" class="node">
<title>box&#45;wrapper/box&#45;wrapper.component.ts</title>
<ellipse fill="none" stroke="#cfffac" cx="176.7956" cy="-18" rx="176.5915" ry="18"/>
<text text-anchor="middle" x="176.7956" y="-14.8493" font-family="Arial" font-size="14.00" fill="#cfffac">box&#45;wrapper/box&#45;wrapper.component.ts</text>
</g>
<!-- box&#45;wrapper/box&#45;wrapper.module.ts -->
<g id="node2" class="node">
<title>box&#45;wrapper/box&#45;wrapper.module.ts</title>
<ellipse fill="none" stroke="#c6c5fe" cx="268.7956" cy="-90" rx="161.1581" ry="18"/>
<text text-anchor="middle" x="268.7956" y="-86.8493" font-family="Arial" font-size="14.00" fill="#c6c5fe">box&#45;wrapper/box&#45;wrapper.module.ts</text>
</g>
<!-- box&#45;wrapper/box&#45;wrapper.module.ts&#45;&gt;box&#45;wrapper/box&#45;wrapper.component.ts -->
<g id="edge1" class="edge">
<title>box&#45;wrapper/box&#45;wrapper.module.ts&#45;&gt;box&#45;wrapper/box&#45;wrapper.component.ts</title>
<path fill="none" stroke="#757575" d="M245.5801,-71.8314C234.1621,-62.8955 220.2384,-51.9987 207.9126,-42.3524"/>
<polygon fill="#757575" stroke="#757575" points="209.7171,-39.3203 199.685,-35.9134 205.403,-44.8328 209.7171,-39.3203"/>
</g>
<!-- box&#45;wrapper/index.ts -->
<g id="node3" class="node">
<title>box&#45;wrapper/index.ts</title>
<ellipse fill="none" stroke="#c6c5fe" cx="268.7956" cy="-162" rx="98.4629" ry="18"/>
<text text-anchor="middle" x="268.7956" y="-158.8493" font-family="Arial" font-size="14.00" fill="#c6c5fe">box&#45;wrapper/index.ts</text>
</g>
<!-- box&#45;wrapper/index.ts&#45;&gt;box&#45;wrapper/box&#45;wrapper.component.ts -->
<g id="edge2" class="edge">
<title>box&#45;wrapper/index.ts&#45;&gt;box&#45;wrapper/box&#45;wrapper.component.ts</title>
<path fill="none" stroke="#757575" d="M200.8648,-148.9408C159.1265,-139.3815 111.3205,-125.12 98.7956,-108 89.3484,-95.0868 91.3699,-86.1725 98.7956,-72 105.3772,-59.4387 116.3549,-49.2184 128.0272,-41.1855"/>
<polygon fill="#757575" stroke="#757575" points="130.0469,-44.0487 136.5962,-35.7206 126.2829,-38.1467 130.0469,-44.0487"/>
</g>
<!-- box&#45;wrapper/index.ts&#45;&gt;box&#45;wrapper/box&#45;wrapper.module.ts -->
<g id="edge3" class="edge">
<title>box&#45;wrapper/index.ts&#45;&gt;box&#45;wrapper/box&#45;wrapper.module.ts</title>
<path fill="none" stroke="#757575" d="M268.7956,-143.8314C268.7956,-136.131 268.7956,-126.9743 268.7956,-118.4166"/>
<polygon fill="#757575" stroke="#757575" points="272.2957,-118.4132 268.7956,-108.4133 265.2957,-118.4133 272.2957,-118.4132"/>
</g>
<!-- box/box.component.ts -->
<g id="node4" class="node">
<title>box/box.component.ts</title>
<ellipse fill="none" stroke="#cfffac" cx="514.7956" cy="-18" rx="102.9126" ry="18"/>
<text text-anchor="middle" x="514.7956" y="-14.8493" font-family="Arial" font-size="14.00" fill="#cfffac">box/box.component.ts</text>
</g>
<!-- box/box.module.ts -->
<g id="node5" class="node">
<title>box/box.module.ts</title>
<ellipse fill="none" stroke="#c6c5fe" cx="572.7956" cy="-90" rx="87.4801" ry="18"/>
<text text-anchor="middle" x="572.7956" y="-86.8493" font-family="Arial" font-size="14.00" fill="#c6c5fe">box/box.module.ts</text>
</g>
<!-- box/box.module.ts&#45;&gt;box/box.component.ts -->
<g id="edge4" class="edge">
<title>box/box.module.ts&#45;&gt;box/box.component.ts</title>
<path fill="none" stroke="#757575" d="M558.4585,-72.2022C551.557,-63.6348 543.1519,-53.2009 535.566,-43.7839"/>
<polygon fill="#757575" stroke="#757575" points="538.1678,-41.4344 529.1688,-35.8425 532.7165,-45.8258 538.1678,-41.4344"/>
</g>
<!-- box/index.ts -->
<g id="node6" class="node">
<title>box/index.ts</title>
<ellipse fill="none" stroke="#c6c5fe" cx="457.7956" cy="-162" rx="61.1032" ry="18"/>
<text text-anchor="middle" x="457.7956" y="-158.8493" font-family="Arial" font-size="14.00" fill="#c6c5fe">box/index.ts</text>
</g>
<!-- box/index.ts&#45;&gt;box/box.component.ts -->
<g id="edge5" class="edge">
<title>box/index.ts&#45;&gt;box/box.component.ts</title>
<path fill="none" stroke="#757575" d="M459.463,-143.7557C461.6633,-125.0929 466.5322,-95.5734 476.7956,-72 481.0514,-62.2251 487.2301,-52.4258 493.3729,-43.9097"/>
<polygon fill="#757575" stroke="#757575" points="496.2084,-45.9626 499.4312,-35.8699 490.6179,-41.75 496.2084,-45.9626"/>
</g>
<!-- box/index.ts&#45;&gt;box/box.module.ts -->
<g id="edge6" class="edge">
<title>box/index.ts&#45;&gt;box/box.module.ts</title>
<path fill="none" stroke="#757575" d="M483.8909,-145.6621C499.4662,-135.9106 519.4762,-123.3826 536.5674,-112.682"/>
<polygon fill="#757575" stroke="#757575" points="538.5815,-115.5505 545.2,-107.2773 534.8668,-109.6174 538.5815,-115.5505"/>
</g>
<!-- index.ts -->
<g id="node7" class="node">
<title>index.ts</title>
<ellipse fill="none" stroke="#c6c5fe" cx="362.7956" cy="-234" rx="43.4845" ry="18"/>
<text text-anchor="middle" x="362.7956" y="-230.8493" font-family="Arial" font-size="14.00" fill="#c6c5fe">index.ts</text>
</g>
<!-- index.ts&#45;&gt;box&#45;wrapper/index.ts -->
<g id="edge7" class="edge">
<title>index.ts&#45;&gt;box&#45;wrapper/index.ts</title>
<path fill="none" stroke="#757575" d="M341.934,-218.0209C329.661,-208.6203 313.9015,-196.5492 300.1562,-186.0208"/>
<polygon fill="#757575" stroke="#757575" points="301.9743,-183.0047 291.9072,-179.7025 297.7178,-188.5619 301.9743,-183.0047"/>
</g>
<!-- index.ts&#45;&gt;box/index.ts -->
<g id="edge8" class="edge">
<title>index.ts&#45;&gt;box/index.ts</title>
<path fill="none" stroke="#757575" d="M383.8792,-218.0209C396.6739,-208.3238 413.2181,-195.7851 427.4096,-185.0294"/>
<polygon fill="#757575" stroke="#757575" points="429.5917,-187.7673 435.4473,-178.9377 425.3635,-182.1885 429.5917,-187.7673"/>
</g>
</g>
</svg>
